<svg width="32" height="32" viewBox="0 0 32 32" fill="none" xmlns="http://www.w3.org/2000/svg">
<path d="M29.8662 7.39824C28.8454 7.85157 27.7489 8.15664 26.598 8.29424C27.7734 7.59024 28.6748 6.47554 29.0993 5.14647C28.0006 5.7982 26.7825 6.2718 25.4854 6.5278C24.4476 5.42167 22.9692 4.73047 21.3329 4.73047C18.1905 4.73047 15.6433 7.27877 15.6433 10.4201C15.6433 10.866 15.6945 11.3012 15.7905 11.7161C11.062 11.4793 6.86997 9.21371 4.06251 5.77047C3.57397 6.611 3.29344 7.5881 3.29344 8.63237C3.29344 10.6057 4.29717 12.3476 5.82357 13.3673C4.8913 13.3374 4.01344 13.0814 3.24651 12.6558C3.24651 12.6804 3.24651 12.7028 3.24651 12.7273C3.24651 15.4846 5.20704 17.7844 7.81079 18.306C7.33399 18.4361 6.8305 18.5054 6.31104 18.5054C5.94517 18.5054 5.58784 18.4692 5.24117 18.4041C5.96544 20.6644 8.06679 22.3102 10.5564 22.3561C8.6097 23.8825 6.15637 24.7924 3.48971 24.7924C3.03104 24.7924 2.57771 24.7657 2.13184 24.7124C4.65024 26.3262 7.6401 27.2681 10.854 27.2681C21.3201 27.2681 27.0417 18.5982 27.0417 11.0793C27.0417 10.8329 27.0364 10.5876 27.0257 10.3433C28.1382 9.5401 29.1036 8.5385 29.8662 7.39824Z" fill="#060606"/>
</svg>
